<?xml version="1.0" standalone="no"?>
<!DOCTYPE svg PUBLIC "-//W3C//DTD SVG 20010904//EN"
 "http://www.w3.org/TR/2001/REC-SVG-20010904/DTD/svg10.dtd">
<svg version="1.0" xmlns="http://www.w3.org/2000/svg"
 width="400.000000pt" height="400.000000pt" viewBox="0 0 400.000000 400.000000"
 preserveAspectRatio="xMidYMid meet">
<metadata>
Created by potrace 1.11, written by Peter Selinger 2001-2013
</metadata>
<g transform="translate(0.000000,400.000000) scale(0.100000,-0.100000)"
fill="#000000" stroke="none">
<path d="M1738 3820 c-786 -83 -1409 -660 -1550 -1438 -30 -168 -30 -496 0
-664 117 -642 564 -1158 1177 -1357 203 -67 323 -84 575 -84 252 0 372 17 575
84 613 199 1060 715 1177 1357 30 168 30 496 0 664 -133 730 -697 1294 -1420
1419 -136 23 -402 32 -534 19z m644 -839 c49 -21 92 -63 107 -104 16 -42 13
-177 -5 -249 -23 -90 -85 -228 -129 -288 -72 -98 -157 -128 -210 -75 -31 30
-31 46 -4 71 35 31 166 234 200 309 36 79 49 177 29 214 -30 57 -134 59 -246
4 -115 -56 -280 -238 -404 -447 -155 -259 -270 -623 -270 -853 0 -161 45 -306
121 -388 69 -75 106 -90 224 -90 107 0 145 10 255 68 141 75 304 248 389 415
22 43 38 51 59 30 20 -20 14 -38 -35 -117 -160 -261 -362 -434 -564 -487 -91
-24 -257 -22 -331 4 -108 38 -214 133 -262 236 -54 115 -70 198 -70 366 0 151
7 211 41 335 135 500 492 944 842 1046 81 24 208 24 263 0z"/>
</g>
</svg>
